<?xml version="1.0" standalone="no"?>
<!DOCTYPE svg PUBLIC "-//W3C//DTD SVG 20010904//EN"
 "http://www.w3.org/TR/2001/REC-SVG-20010904/DTD/svg10.dtd">
<svg version="1.0" xmlns="http://www.w3.org/2000/svg"
 width="300.000000pt" height="300.000000pt" viewBox="0 0 300.000000 300.000000"
 preserveAspectRatio="xMidYMid meet">
<metadata>
Created by potrace 1.10, written by Peter Selinger 2001-2011
</metadata>
<g transform="translate(0.000000,300.000000) scale(0.100000,-0.100000)"
fill="#000000" stroke="none">
<path d="M910 2683 l0 -133 45 0 45 0 0 -50 0 -50 -45 0 -45 0 0 -40 0 -40 90
0 90 0 0 -95 0 -95 -45 0 -45 0 0 45 0 45 -45 0 -45 0 0 -45 0 -45 45 0 45 0
0 -45 0 -45 -270 0 -270 0 0 -45 0 -45 45 0 45 0 0 -45 0 -45 40 0 40 0 0 45
0 45 95 0 95 0 0 -45 0 -45 -90 0 -90 0 0 -45 0 -45 -50 0 -50 0 0 45 0 45
-40 0 -39 0 -3 -137 -3 -138 -41 -3 c-41 -3 -42 -4 -49 -48 l-6 -45 -42 3
c-42 3 -42 3 -45 46 l-3 42 -45 0 -45 0 3 -132 3 -133 42 -3 42 -3 3 48 3 48
42 3 42 3 3 -48 3 -48 87 -3 87 -3 3 48 3 48 48 3 47 3 0 39 0 39 -47 3 -48 3
0 45 0 45 48 3 47 3 0 -45 0 -46 45 0 45 0 0 45 0 45 46 0 45 0 -3 43 c-3 42
-3 42 -45 45 l-43 3 0 45 0 44 180 0 180 0 0 -45 0 -45 -90 0 -90 0 0 -95 0
-95 -90 0 -90 0 0 -39 c0 -40 0 -40 43 -43 l42 -3 3 -47 3 -48 -45 0 -46 0 0
-45 0 -45 45 0 45 0 0 -45 0 -45 -45 0 -45 0 0 -45 0 -45 45 0 45 0 0 45 0 45
45 0 45 0 0 -45 0 -45 45 0 45 0 0 -45 0 -45 45 0 45 0 0 -45 0 -45 -90 0 -90
0 0 45 0 45 -90 0 -90 0 0 -45 0 -45 90 0 90 0 0 -230 0 -230 90 0 90 0 0 -45
0 -45 -45 0 -45 0 0 -45 0 -45 -45 0 -45 0 0 -45 0 -45 45 0 45 0 0 45 0 45
45 0 45 0 0 -45 0 -45 45 0 45 0 0 45 0 45 90 0 90 0 0 -45 0 -45 45 0 45 0 0
45 0 45 -45 0 -45 0 0 45 0 45 45 0 45 0 0 45 0 45 -45 0 -45 0 0 -45 0 -45
-90 0 -90 0 0 45 0 45 44 0 45 0 3 48 3 47 88 3 87 3 0 269 0 270 45 0 45 0 0
45 0 45 -90 0 -90 0 0 90 0 90 -45 0 -45 0 0 -90 0 -90 -45 0 -45 0 0 -90 0
-90 -45 0 -45 0 0 45 0 45 -45 0 -45 0 0 45 0 45 45 0 45 0 0 45 0 45 45 0 45
0 0 90 0 90 -90 0 -90 0 0 -45 0 -45 45 0 45 0 0 -45 0 -45 -45 0 -45 0 0 -45
0 -45 -45 0 -45 0 0 45 0 45 -45 0 -45 0 0 44 0 45 43 3 42 3 3 48 3 47 45 0
44 0 0 45 0 45 45 0 45 0 0 90 0 90 90 0 90 0 0 -45 0 -45 134 0 135 0 3 43
c3 42 3 42 46 45 l42 3 0 45 0 44 -45 0 -45 0 0 90 0 90 140 0 140 0 0 45 0
45 -140 0 -140 0 0 135 0 135 -45 0 -45 0 0 45 0 45 -45 0 -45 0 0 45 0 45
-45 0 -45 0 0 45 0 45 -45 0 -45 0 0 -90 0 -90 -45 0 -45 0 0 90 0 90 -45 0
-45 0 0 50 0 50 45 0 45 0 0 -45 0 -45 45 0 45 0 0 88 0 87 -135 0 -135 0 0
-132z m458 -360 c3 -42 3 -42 45 -45 l42 -3 3 -92 3 -93 -46 0 -45 0 0 -45 0
-45 45 0 45 0 0 -135 0 -135 -50 0 -50 0 0 135 0 135 -45 0 -45 0 0 -45 0 -45
-45 0 -45 0 0 45 0 45 -45 0 -45 0 0 90 0 90 44 0 45 0 3 48 3 47 43 3 42 3 0
45 0 45 48 -3 47 -3 3 -42z m-368 -368 l0 -45 -45 0 -45 0 0 45 0 45 45 0 45
0 0 -45z m360 -1045 l0 -90 -45 0 -45 0 0 90 0 90 45 0 45 0 0 -90z m-180 -90
l0 -90 -90 0 -90 0 0 45 0 45 45 0 45 0 0 45 0 45 45 0 45 0 0 -90z m180 -135
l0 -45 -45 0 -45 0 0 45 0 45 45 0 45 0 0 -45z m-180 -140 l0 -95 -45 0 -45 0
0 50 0 50 -45 0 -45 0 0 45 0 45 90 0 90 0 0 -95z"/>
<path d="M1280 2241 c0 -52 -8 -61 -56 -61 l-44 0 0 -90 0 -90 45 0 45 0 0 45
0 45 45 0 45 0 0 90 0 90 -40 0 c-38 0 -40 -2 -40 -29z"/>
<path d="M1730 2773 l0 -43 43 0 43 0 -4 39 c-4 37 -6 39 -43 43 l-39 4 0 -43z"/>
<path d="M185 2618 c-3 -106 -5 -247 -3 -313 l3 -120 315 0 315 0 3 130 c2 72
0 212 -3 313 l-7 182 -308 0 -308 0 -7 -192z m540 -118 l0 -225 -225 0 -225 0
-3 215 c-1 118 0 220 3 227 3 11 52 13 227 11 l223 -3 0 -225z"/>
<path d="M370 2500 l0 -130 130 0 130 0 0 130 0 130 -130 0 -130 0 0 -130z"/>
<path d="M1370 2680 l0 -130 45 0 45 0 0 -45 0 -45 45 0 45 0 0 -45 0 -45 40
0 40 0 0 85 0 85 -45 0 -45 0 0 50 0 50 45 0 45 0 0 85 0 85 -130 0 -130 0 0
-130z"/>
<path d="M2185 2648 c-3 -90 -5 -230 -3 -313 l3 -150 315 0 315 0 0 280 c0
154 -2 295 -4 313 l-3 32 -308 0 -308 0 -7 -162z m540 -148 l0 -225 -225 0
-225 0 -3 215 c-1 118 0 220 3 227 3 11 52 13 227 11 l223 -3 0 -225z"/>
<path d="M2370 2500 l0 -130 130 0 130 0 0 130 0 130 -130 0 -130 0 0 -130z"/>
<path d="M1910 2675 l0 -45 -45 0 -45 0 0 -40 0 -40 90 0 90 0 0 85 0 85 -45
0 -45 0 0 -45z"/>
<path d="M1730 2500 l0 -40 45 0 45 0 0 40 0 40 -45 0 -45 0 0 -40z"/>
<path d="M2000 2500 l0 -40 45 0 45 0 0 40 0 40 -45 0 -45 0 0 -40z"/>
<path d="M1820 2410 l0 -40 90 0 90 0 0 40 0 40 -90 0 -90 0 0 -40z"/>
<path d="M1640 2225 l0 -45 39 0 c47 0 50 3 44 53 -5 36 -7 37 -44 37 l-39 0
0 -45z"/>
<path d="M1820 2225 l0 -45 45 0 45 0 0 45 0 45 -45 0 -45 0 0 -45z"/>
<path d="M2000 2180 l0 -90 -45 0 -45 0 0 -90 0 -90 -45 0 -45 0 0 -45 0 -45
-45 0 -45 0 0 -45 0 -45 46 0 45 0 -3 -47 c-3 -50 -3 -49 -60 -52 l-28 -1 0
-85 0 -85 45 0 45 0 0 45 0 45 45 0 45 0 0 45 0 45 90 0 90 0 0 45 0 45 45 0
45 0 0 45 0 45 45 0 45 0 0 45 0 45 90 0 90 0 0 90 0 90 -40 0 -40 0 0 -45 0
-45 -50 0 -50 0 0 -45 0 -45 -45 0 -45 0 0 -45 0 -45 -90 0 -90 0 0 -45 0 -45
-45 0 -45 0 0 90 0 90 45 0 45 0 0 45 0 45 90 0 90 0 0 45 0 45 -45 0 -45 0 0
90 0 90 -45 0 -45 0 0 -90z"/>
<path d="M180 2045 l0 -45 45 0 45 0 0 45 0 45 -45 0 -45 0 0 -45z"/>
<path d="M2550 1955 l0 -135 40 0 40 0 0 45 0 45 50 0 50 0 0 45 0 45 45 0 45
0 0 45 0 45 -135 0 -135 0 0 -135z"/>
<path d="M277 1903 c-4 -3 -7 -24 -7 -45 l0 -38 -45 0 -45 0 0 -45 0 -45 90 0
90 0 0 90 0 90 -38 0 c-21 0 -42 -3 -45 -7z"/>
<path d="M2277 1813 c-4 -3 -7 -23 -7 -44 0 -37 -1 -38 -42 -41 l-43 -3 0
-180 0 -180 43 -3 42 -3 0 -90 0 -89 -45 0 -45 0 0 -45 0 -45 -45 0 -45 0 0
-45 0 -45 -45 0 -45 0 0 90 0 90 45 0 45 0 0 90 0 90 -45 0 -45 0 0 90 0 90
-45 0 -45 0 0 -45 0 -45 -45 0 -45 0 0 -45 0 -45 45 0 45 0 0 -45 0 -45 -45 0
-45 0 0 -45 0 -45 -90 0 -90 0 0 -45 0 -45 -45 0 -45 0 0 -45 0 -45 45 0 45 0
0 -90 0 -90 -45 0 -45 0 0 -90 0 -90 45 0 45 0 0 -45 0 -45 45 0 45 0 0 45 0
45 90 0 90 0 0 -45 0 -45 -45 0 -45 0 0 -50 0 -50 -45 0 -45 0 0 -45 0 -45 45
0 45 0 0 -45 0 -45 45 0 45 0 0 -45 0 -45 90 0 90 0 0 45 0 45 45 0 45 0 0 90
0 90 -45 0 -45 0 0 -90 0 -90 -90 0 -90 0 0 45 0 45 -45 0 -45 0 0 44 0 45 43
3 42 3 3 48 3 47 180 0 179 0 0 -185 0 -186 138 3 137 3 3 42 c3 42 3 42 45
45 42 3 42 3 45 46 l3 42 45 0 44 0 0 -45 0 -45 45 0 45 0 0 90 0 90 -44 0
-45 0 -3 48 -3 47 -42 3 -42 3 -3 -48 -3 -48 -42 -3 c-42 -3 -42 -3 -45 -45
l-3 -42 -45 0 -45 0 -3 42 c-3 42 -3 42 -45 45 l-42 3 0 45 0 45 93 3 93 3 -3
42 -3 42 -48 3 -48 3 3 42 3 42 49 3 48 3 -3 87 -4 87 93 3 92 3 0 44 0 45
-45 0 -45 0 0 44 0 45 -47 3 -48 3 -3 43 c-3 42 -3 42 -42 42 -39 0 -39 0 -42
-42 l-3 -43 -47 -3 -48 -3 0 45 0 46 45 0 45 0 0 45 0 45 -45 0 -46 0 3 93 3
92 42 3 c42 3 42 3 45 45 l3 42 45 0 45 0 3 -93 3 -93 42 3 42 3 3 93 3 92 44
0 45 0 0 -96 0 -95 43 3 42 3 3 228 2 227 -44 0 -45 0 -3 -92 -3 -93 -180 0
-180 0 -3 48 -3 47 90 0 91 0 0 45 0 45 -128 0 c-71 0 -132 -3 -135 -7z m-367
-813 l0 -90 45 0 45 0 0 -45 0 -45 -45 0 -45 0 0 -45 0 -45 -90 0 -90 0 0 -45
0 -45 -45 0 -45 0 0 45 0 45 45 0 45 0 0 45 0 45 90 0 90 0 0 45 0 45 -45 0
-45 0 0 45 0 45 -45 0 -45 0 0 45 0 45 90 0 90 0 0 -90z m450 45 l0 -45 -90 0
-90 0 0 45 0 45 90 0 90 0 0 -45z m0 -270 l0 -135 -135 0 -135 0 0 135 0 135
135 0 135 0 0 -135z"/>
<path d="M2180 775 l0 -45 45 0 45 0 0 45 0 45 -45 0 -45 0 0 -45z"/>
<path d="M1270 1500 l0 -40 45 0 45 0 0 40 0 40 -45 0 -45 0 0 -40z"/>
<path d="M1458 1498 l-3 -43 -48 -3 -48 -3 3 -42 3 -42 87 -3 87 -3 3 48 3 48
48 3 47 3 0 40 0 39 -89 0 -90 0 -3 -42z"/>
<path d="M640 1404 l0 -45 43 3 c42 3 42 3 45 46 l3 42 -45 0 -46 0 0 -46z"/>
<path d="M1640 1405 l0 -45 -45 0 -45 0 0 -46 0 -45 43 3 c42 3 42 3 45 45 3
42 3 42 45 45 42 3 42 3 45 46 l3 42 -45 0 -46 0 0 -45z"/>
<path d="M2460 1315 l0 -45 40 0 40 0 0 45 0 45 -40 0 -40 0 0 -45z"/>
<path d="M180 1090 l0 -180 135 0 135 0 0 45 0 45 -45 0 -45 0 0 45 0 45 45 0
45 0 0 45 0 45 50 0 50 0 0 -45 0 -45 45 0 45 0 0 90 0 90 -140 0 -140 0 0
-45 0 -45 -45 0 -45 0 0 45 0 45 -45 0 -45 0 0 -180z"/>
<path d="M2550 1225 l0 -45 90 0 90 0 0 -45 0 -45 45 0 45 0 0 45 0 45 -45 0
-45 0 0 45 0 45 -90 0 -90 0 0 -45z"/>
<path d="M460 1045 l0 -45 40 0 40 0 0 45 0 45 -40 0 -40 0 0 -45z"/>
<path d="M550 955 l0 -45 45 0 45 0 0 45 0 45 -45 0 -45 0 0 -45z"/>
<path d="M180 500 l0 -320 320 0 320 0 0 320 0 320 -320 0 -320 0 0 -320z
m540 0 l0 -220 -220 0 -220 0 0 220 0 220 220 0 220 0 0 -220z"/>
<path d="M364 627 c-2 -7 -3 -69 -2 -138 l3 -124 135 0 135 0 0 135 0 135
-133 3 c-103 2 -134 0 -138 -11z"/>
<path d="M2640 686 l0 -46 46 0 45 0 -3 43 c-3 42 -3 42 -45 45 l-43 3 0 -45z"/>
<path d="M1454 536 c-3 -8 -4 -29 -2 -48 3 -32 5 -33 51 -36 l47 -3 0 -90 0
-90 43 3 42 3 0 135 0 135 -88 3 c-69 2 -88 0 -93 -12z"/>
</g>
</svg>
